Simulation
nRows=49
nColumns=15
endheader
time  TH_x TH_y TH_z SC_y  SC_z  SC_x  AC_y  AC_z  AC_x  GH_y  GH_z  GH_yy  EL_x  PS_y
2.0  0.000000  0.000000  0.000000  -30.34506531604247  2.5780606712844514  18.93744407974998  58.54814691464311  9.775641563448909  1.7656520660297772  59.05948103489185  48.38305739427587  -60.90859721881969  23.009971928409893  0.000000
2.04  0.000000  0.000000  0.000000  -30.364365426702125  2.522637957768377  18.973840624943143  58.61637167762756  9.748187613145122  1.610592324272249  59.73532356283111  48.30653306609943  -62.082050413444925  22.936714089190748  0.000000
2.08  0.000000  0.000000  0.000000  -30.362063753618987  2.462165342680288  18.97741989868254  58.67914518867537  9.746507826619844  1.4991820635466957  60.61234844672689  48.19987879561718  -63.64976102990193  22.921905316646622  0.000000
2.12  0.000000  0.000000  0.000000  -30.30272738531059  2.3832802191284723  18.9174889157573  58.7475883821315  9.774659280075873  1.4401200219106807  61.671298578563636  48.028735835300516  -65.56646620637812  22.959244112798032  0.000000
2.16  0.000000  0.000000  0.000000  -30.148355418974166  2.2788788808934703  18.754338669421717  58.83222200443205  9.8359932360879  1.4376059949081208  62.86986206361141  47.78074918973591  -67.66166626057048  23.0342063947007  0.000000
2.2  0.000000  0.000000  0.000000  -29.866793873922614  2.155135590696874  18.445989818543854  58.94246341455362  9.923150504771778  1.4942084875038215  64.129863794724  47.4693751854898  -69.68623680639435  23.132659424841616  0.000000
2.24  0.000000  0.000000  0.000000  -29.437754206401415  2.019154041054703  17.96911610749198  59.08347245353301  10.024962104351305  1.6051941172347413  65.39063344467358  47.11358885928551  -71.44156139539815  23.234418065987395  0.000000
2.2800000000000002  0.000000  0.000000  0.000000  -28.88578870174882  1.880875491612577  17.34058964539841  59.2580034551411  10.130722508231475  1.7634947019289047  66.63619398310634  46.734012929425674  -72.84427475107047  23.312488973277258  0.000000
2.32  0.000000  0.000000  0.000000  -28.252549810590494  1.745379470347675  16.596466758675458  59.4580321724649  10.237325084951678  1.9500038545624683  67.8869895169479  46.359385088992674  -73.91162984992829  23.33744550321887  0.000000
2.36  0.000000  0.000000  0.000000  -27.60865166696433  1.610722306773934  15.814044741627987  59.67690172023092  10.342503938188475  2.1427263118075457  69.18057227620817  46.00804521014359  -74.71170925594714  23.283104259881373  0.000000
2.4  0.000000  0.000000  0.000000  -27.005260622179478  1.4752958936233644  15.053070183289428  59.89844310766802  10.448441568188127  2.3148342166766294  70.52174370305573  45.70666325258343  -75.30519198067982  23.15383749141021  0.000000
2.44  0.000000  0.000000  0.000000  -26.5078247009779  1.3280627097370663  14.391286485510033  60.12011261506065  10.56248867436135  2.4397337975657396  71.90794318610293  45.46549585897242  -75.75361971015857  22.979959210121063  0.000000
2.48  0.000000  0.000000  0.000000  -26.156457380649872  1.1629401978785676  13.870731887890448  60.33929490901845  10.699077929320756  2.4993867992048053  73.31965257985918  45.296561146148484  -76.0995305250606  22.80439251696562  0.000000
2.52  0.000000  0.000000  0.000000  -25.960316363376872  0.983387493123737  13.505924041741068  60.55573358887343  10.858301489853563  2.4993013119089924  74.71951146263216  45.20140284957221  -76.35076866167239  22.657369491789485  0.000000
2.56  0.000000  0.000000  0.000000  -25.862491687354087  0.8078863234824353  13.26694600771516  60.75803229775317  11.01585062850044  2.4747979587062052  76.04241507189985  45.163643671807925  -76.46315431843738  22.54167714977944  0.000000
2.6  0.000000  0.000000  0.000000  -25.763679301225448  0.6704341208030955  13.081031833803305  60.92395886278161  11.129088999290621  2.482040356510223  77.1892591070649  45.16034739086769  -76.35731173920976  22.44799299617157  0.000000
2.64  0.000000  0.000000  0.000000  -25.58057564604074  0.5912189540221554  12.886931985369197  61.03762559237926  11.170054223786861  2.564045821293629  78.09764588677683  45.154053685726694  -75.99346265350333  22.365144050769235  0.000000
2.68  0.000000  0.000000  0.000000  -25.29193498068181  0.5707026693803589  12.648655107660062  61.09416166515577  11.146627895352378  2.728862931897814  78.75260354995841  45.11917729527352  -75.42239928738937  22.303204516698536  0.000000
2.72  0.000000  0.000000  0.000000  -24.932678426911394  0.5918016345488871  12.368027908100322  61.091454797864834  11.092680752950306  2.945698735300661  79.1877456967204  45.04116328934911  -74.77353992152548  22.29383835036295  0.000000
2.7600000000000002  0.000000  0.000000  0.000000  -24.577148051953547  0.6302470860523874  12.086066550478675  61.0379777290135  11.046969457915782  3.16245973353979  79.44637373914905  44.910533958431195  -74.21312960854154  22.36461537254765  0.000000
2.8000000000000003  0.000000  0.000000  0.000000  -24.291308226784658  0.6740472656097809  11.843266518120448  60.934865154176485  11.033526044714977  3.338675884146498  79.54990365752717  44.72813126641349  -73.86699650487165  22.509466252393278  0.000000
2.84  0.000000  0.000000  0.000000  -24.171539613741952  0.718937803672547  11.695528831491009  60.81817994031062  11.075779181485947  3.445163767965437  79.52465423401947  44.50947526299067  -73.81704240518923  22.68740764336307  0.000000
2.88  0.000000  0.000000  0.000000  -24.302112205472813  0.7678078056436693  11.68047676440588  60.723873940657846  11.194079851329933  3.4732155906417965  79.40633347643538  44.280749626644806  -74.09857078930021  22.83137338779072  0.000000
2.92  0.000000  0.000000  0.000000  -24.72952557311856  0.8265340132897431  11.8152900464872  60.680928622759225  11.400612451663518  3.429560869289694  79.22862415049605  44.06344217208316  -74.71197076845993  22.86789038662435  0.000000
2.96  0.000000  0.000000  0.000000  -25.3981551272057  0.9077679521315205  12.073358953766627  60.668355115521564  11.666958217985101  3.3429224290307062  78.97733354534115  43.857155820313025  -75.55424196160719  22.753563812221504  0.000000
3.0  0.000000  0.000000  0.000000  -26.15566149640192  1.036707834795402  12.385415310971602  60.62560190244966  11.932860680937296  3.2625426183767092  78.56934175693097  43.655436675630305  -76.44233416732716  22.456763157791336  0.000000
3.04  0.000000  0.000000  0.000000  -26.83761156487982  1.2368659016824508  12.679802873487143  60.4895131127689  12.126010771116695  3.24056392980754  77.90140357868134  43.4577222814099  -77.14567582888117  21.96589988646407  0.000000
3.08  0.000000  0.000000  0.000000  -27.35768527356916  1.51267487143492  12.923489911763061  60.245074920661494  12.217820388882268  3.3022245754337423  76.89457755795904  43.28246677845653  -77.46466235493001  21.299415803535524  0.000000
3.12  0.000000  0.000000  0.000000  -27.72518275155746  1.8327614262297178  13.127680370716835  59.9176920664277  12.224176483337976  3.448437166543665  75.51734097835696  43.15430760391053  -77.25901598685981  20.500645501370798  0.000000
3.16  0.000000  0.000000  0.000000  -28.021233282493498  2.141919062902705  13.352448479465734  59.57687388614999  12.203002339446325  3.651602151163754  73.78581342091232  43.088041933499404  -76.45033365548925  19.627002209111193  0.000000
3.2  0.000000  0.000000  0.000000  -28.304507544845844  2.395734299739104  13.634190310365257  59.263408990747884  12.189590620483118  3.894051659282688  71.72830042931506  43.10882793153854  -75.01291645152415  18.74236454917304  0.000000
3.24  0.000000  0.000000  0.000000  -28.610027786206846  2.574199829531931  14.001182849912833  59.00618299434739  12.203808822663936  4.157621524373974  69.41633415940397  43.240751410156015  -72.98994099879997  17.904971945290654  0.000000
3.2800000000000002  0.000000  0.000000  0.000000  -28.929067061710334  2.687470184584995  14.441299687255167  58.791526707035075  12.226134389314222  4.44072217466112  66.94902541578482  43.52130081867079  -70.50313901762821  17.179870794224758  0.000000
3.3200000000000003  0.000000  0.000000  0.000000  -29.25271442791087  2.7514664418277714  14.940249847852378  58.6182202122238  12.242911334976473  4.729534286006738  64.44715085449911  43.975235495551864  -67.69755398559084  16.61809712905417  0.000000
3.36  0.000000  0.000000  0.000000  -29.56436935531908  2.7826223158143213  15.469851339921265  58.47360331557304  12.237565266966513  5.017369740493113  62.03866315569608  44.60916144876247  -64.75683644489513  16.270860741424308  0.000000
3.4  0.000000  0.000000  0.000000  -29.855604515093052  2.8003720418650206  15.999043236325841  58.363640786643444  12.202144858622418  5.287353885089531  59.815952626366105  45.41442913935187  -61.82339744569671  16.166388141092526  0.000000
3.44  0.000000  0.000000  0.000000  -30.111938197632842  2.8200893132697966  16.50091561985013  58.278093860802386  12.133253188190409  5.531596598314542  57.86419141020708  46.34385658792814  -59.06170789282352  16.333036010425012  0.000000
3.48  0.000000  0.000000  0.000000  -30.33387962218492  2.8542050634282146  16.946309867922608  58.21916403121374  12.034468541549817  5.73721866689947  56.217389463644146  47.345349315593516  -56.55861229553282  16.760614174315897  0.000000
3.52  0.000000  0.000000  0.000000  -30.50971434298322  2.901838635359999  17.32934358337377  58.17491959230754  11.918860426878263  5.897374268981002  54.90635838721703  48.3307808224192  -54.422036851779765  17.391454577876043  0.000000
3.56  0.000000  0.000000  0.000000  -30.643933248901785  2.951280993613554  17.64075172609624  58.13808114244165  11.79575298528493  6.024819793130147  53.92466203870082  49.23476380797261  -52.667835615987585  18.10822717217679  0.000000
3.6  0.000000  0.000000  0.000000  -30.732336124249827  2.9982779549146024  17.891608238199378  58.11566519142024  11.68104603676029  6.108479291769759  53.26521826054578  50.003453163874134  -51.3220009409209  18.838359075765478  0.000000
3.64  0.000000  0.000000  0.000000  -30.788133292386274  3.027401543625815  18.080197596538046  58.10999260651074  11.573452092129903  6.17029519996254  52.89397681241597  50.622329356478595  -50.34158028807301  19.506271029920107  0.000000
3.68  0.000000  0.000000  0.000000  -30.797528397632174  3.045804428910424  18.222627567325933  58.12302146273121  11.48169993147982  6.1973713749291734  52.76934443712308  51.07639366602112  -49.73569282013036  20.0930932589278  0.000000
3.72  0.000000  0.000000  0.000000  -30.769886300630407  3.034269023446983  18.318740051397178  58.14257085240443  11.393133788259226  6.2094708056563395  52.815096883430286  51.38798456873258  -49.42071317752559  20.577141685700727  0.000000
3.7600000000000002  0.000000  0.000000  0.000000  -30.68694935626239  3.0219908320280573  18.38466294894154  58.15965607682399  11.310925248202143  6.2000366712073225  52.946403226236036  51.5819255789362  -49.3614492919423  20.948187284470542  0.000000
3.8000000000000003  0.000000  0.000000  0.000000  -30.581394218616474  2.976173614109443  18.43532759193117  58.16967890680462  11.22452463427849  6.184044258819364  53.085277675402445  51.710915971368024  -49.45778512358741  21.19821008722207  0.000000
3.84  0.000000  0.000000  0.000000  -30.434659846682077  2.957955058421011  18.473774785897334  58.1323431271737  11.14413781719061  6.171098579306375  53.16279445816084  51.80253515983363  -49.62797015398242  21.324626278776332  0.000000
3.88  0.000000  0.000000  0.000000  -30.309683226815963  2.8717641363136446  18.52085279869175  58.06528478191576  11.110166189592073  6.134551046726677  53.20847106338068  51.83312952595516  -49.861569921885945  21.294007754824538  0.000000
3.92  0.000000  0.000000  0.000000  -30.16031807406576  2.8182070793621077  18.540122565270718  57.894098890768554  11.109992511179943  6.059085511883069  53.32593961911887  51.67169204694225  -50.090303579441475  21.11750694519174  0.000000
